<?xml version="1.0" standalone="no"?>
<!DOCTYPE svg PUBLIC "-//W3C//DTD SVG 20010904//EN"
 "http://www.w3.org/TR/2001/REC-SVG-20010904/DTD/svg10.dtd">
<svg version="1.0" xmlns="http://www.w3.org/2000/svg"
 width="1000.000000pt" height="1000.000000pt" viewBox="0 0 1000.000000 1000.000000"
 preserveAspectRatio="xMidYMid meet">
<metadata>
Created by potrace 1.11, written by Peter Selinger 2001-2013
</metadata>
<g transform="translate(0.000000,1000.000000) scale(0.100000,-0.100000)"
fill="#000000" stroke="none">
<path d="M4620 9304 c-14 -2 -74 -11 -135 -20 -179 -26 -413 -90 -560 -152
-188 -79 -360 -172 -400 -216 -16 -17 -60 -53 -97 -79 -37 -27 -94 -72 -127
-102 -32 -30 -63 -55 -68 -55 -12 0 -143 -133 -143 -146 0 -6 -14 -23 -31 -40
-17 -16 -72 -83 -121 -149 -50 -66 -95 -122 -99 -125 -12 -8 -60 -97 -147
-271 -103 -206 -173 -420 -213 -658 -11 -69 -25 -128 -29 -131 -26 -16 -30
-302 -30 -1945 0 -1381 -3 -1757 -15 -1955 -16 -267 -52 -631 -88 -890 l-23
-166 -127 -127 c-70 -70 -127 -131 -127 -136 0 -5 -7 -14 -15 -21 -22 -18
-144 -184 -185 -250 -18 -30 -60 -107 -93 -170 -33 -63 -62 -117 -66 -120 -28
-20 -140 -370 -176 -545 -42 -205 -55 -352 -55 -602 l0 -233 1105 0 1105 0 0
531 0 530 24 32 c13 18 67 120 120 227 l96 195 0 -757 0 -758 2275 0 2275 0 0
255 0 254 44 63 c53 77 96 160 131 253 14 38 29 72 34 75 12 8 39 114 56 220
17 110 19 249 5 370 -11 96 -49 260 -59 260 -4 0 -15 24 -25 52 -21 61 -355
740 -368 749 -8 5 -232 454 -327 654 -23 49 -46 92 -50 95 -9 6 -278 542 -296
590 -24 65 -88 205 -96 210 -9 7 -90 246 -123 365 -23 83 -60 270 -85 425 -13
84 -31 325 -34 460 -1 77 -4 97 -10 75 -28 -97 -85 -193 -131 -219 -11 -6 -37
-23 -58 -37 -21 -15 -65 -35 -98 -45 -67 -20 -63 -12 -75 -143 -4 -35 -20
-116 -36 -180 -17 -64 -35 -134 -40 -155 -12 -47 -78 -209 -88 -216 -5 -3 -34
-54 -66 -115 -65 -125 -123 -208 -239 -345 -118 -140 -330 -316 -458 -380 -74
-37 -150 -81 -165 -96 -10 -10 -13 -112 -13 -444 0 -481 -3 -509 -68 -655 -53
-120 -112 -203 -191 -269 -96 -81 -155 -120 -231 -152 -36 -15 -67 -31 -70
-36 -13 -18 -161 -41 -270 -41 -110 0 -256 22 -269 41 -3 4 -31 18 -61 31 -68
29 -106 51 -196 117 -111 82 -168 156 -236 309 -58 131 -59 141 -61 632 -2
385 -4 452 -17 465 -8 8 -60 38 -115 67 -109 58 -194 116 -299 204 -37 31 -72
57 -77 57 -11 0 -213 239 -272 322 -26 36 -60 92 -77 126 -17 34 -34 62 -39
62 -10 0 -91 173 -119 255 -50 146 -102 371 -102 443 0 62 -9 80 -43 88 -61
13 -156 65 -202 109 -58 57 -104 153 -116 243 -4 37 -8 140 -9 230 0 182 2
190 87 315 67 97 270 303 389 393 60 46 113 84 116 84 8 0 171 101 178 110 9
11 160 91 208 110 26 10 110 45 187 77 77 33 224 88 328 124 103 35 187 68
187 74 0 6 84 37 188 69 295 93 436 140 587 196 142 52 285 115 295 128 7 10
167 102 177 102 5 0 34 23 66 50 32 28 63 50 68 50 6 0 53 -31 106 -69 53 -38
119 -81 147 -96 28 -15 55 -33 61 -40 10 -12 260 -184 320 -220 52 -31 185
-144 192 -163 3 -9 29 -42 57 -72 199 -215 224 -255 310 -492 16 -43 22 -49
59 -58 48 -13 148 -70 190 -109 30 -28 97 -153 97 -182 0 -10 5 -21 11 -25 8
-4 10 128 8 472 -2 338 1 491 9 519 19 67 34 274 27 375 -8 123 -48 353 -80
461 -27 92 -95 271 -106 279 -3 3 -21 34 -39 70 -37 74 -103 179 -163 260 -47
64 -167 190 -181 190 -4 0 -38 22 -75 49 -36 27 -118 74 -181 105 -63 31 -120
60 -125 64 -6 5 -27 12 -47 16 -20 4 -38 11 -40 15 -6 18 -158 41 -263 41
-102 0 -235 -23 -235 -40 0 -4 -9 -10 -20 -13 -14 -4 -24 2 -32 16 -29 56 -99
123 -193 186 -148 99 -274 144 -486 175 -96 14 -339 20 -409 10z m1604 -8965
c-11 -26 -28 -42 -56 -55 -36 -16 -44 -16 -80 -3 -23 8 -51 27 -62 42 -21 28
-21 38 -24 625 -2 328 0 630 3 670 l7 73 90 44 c49 25 100 52 111 60 l22 15 3
-717 c2 -645 1 -722 -14 -754z"/>
<path d="M4000 6734 c-83 -13 -152 -28 -205 -46 -64 -22 -187 -77 -195 -87 -3
-4 -33 -29 -68 -55 -113 -86 -148 -158 -99 -204 36 -34 65 -28 113 23 81 88
209 157 361 196 105 27 330 32 426 10 75 -16 112 -4 123 42 17 71 -6 93 -116
112 -76 13 -274 18 -340 9z"/>
<path d="M5552 6726 c-103 -20 -133 -49 -111 -111 19 -51 43 -57 156 -40 54 8
124 15 157 15 90 0 252 -29 341 -61 93 -34 134 -60 232 -146 80 -69 107 -77
141 -40 30 32 27 67 -9 113 -33 42 -115 114 -130 114 -5 0 -18 9 -29 20 -39
39 -171 96 -290 125 -91 23 -362 29 -458 11z"/>
<path d="M3824 6101 c-68 -18 -164 -74 -222 -133 -33 -32 -63 -94 -56 -112 9
-24 28 -20 107 23 105 57 174 75 292 74 117 -1 208 -28 296 -87 40 -27 56 -33
66 -24 20 17 16 35 -23 94 -43 65 -92 105 -171 141 -47 21 -76 26 -158 29 -55
2 -114 0 -131 -5z"/>
<path d="M5838 6097 c-98 -28 -206 -113 -245 -194 -17 -34 -12 -63 11 -63 9 0
39 15 68 34 176 112 415 109 598 -9 63 -41 66 -41 80 -15 15 28 1 52 -84 136
-91 91 -150 116 -286 120 -58 2 -113 -1 -142 -9z"/>
<path d="M4535 5243 c13 -54 38 -94 83 -133 25 -22 49 -40 53 -40 5 0 9 -6 9
-14 0 -43 220 -86 348 -68 94 13 192 48 192 68 0 8 4 14 9 14 4 0 28 18 53 40
45 39 70 79 83 133 l7 27 -422 0 -422 0 7 -27z"/>
<path d="M4309 4647 c-28 -38 -30 -61 -10 -139 20 -78 75 -198 90 -198 5 0 16
-15 25 -34 8 -18 48 -64 87 -101 201 -189 507 -227 767 -96 56 28 212 161 212
181 0 9 64 119 80 138 15 17 36 77 50 146 11 54 10 59 -12 92 -19 28 -29 34
-60 34 -34 0 -38 -3 -38 -26 0 -43 -31 -94 -73 -122 l-41 -27 -400 -3 c-349
-2 -406 -1 -443 13 -54 21 -101 74 -109 125 l-7 40 -51 0 c-41 -1 -54 -5 -67
-23z"/>
</g>
</svg>
